G75*
%MOIN*%
%OFA0B0*%
%FSLAX25Y25*%
%IPPOS*%
%LPD*%
%AMOC8*
5,1,8,0,0,1.08239X$1,22.5*
%
%ADD10R,0.05118X0.05906*%
%ADD11R,0.04724X0.02362*%
%ADD12C,0.07400*%
%ADD13R,0.05906X0.05118*%
%ADD14C,0.01600*%
D10*
X0023060Y0041000D03*
X0030540Y0041000D03*
D11*
X0029776Y0025500D03*
X0029776Y0020500D03*
X0029776Y0015500D03*
X0029776Y0010500D03*
X0051824Y0010500D03*
X0051824Y0015500D03*
X0051824Y0020500D03*
X0051824Y0025500D03*
D12*
X0011800Y0011000D03*
X0011800Y0021000D03*
X0011800Y0031000D03*
X0011800Y0041000D03*
X0061800Y0041000D03*
X0061800Y0031000D03*
X0061800Y0021000D03*
X0061800Y0011000D03*
D13*
X0022800Y0014260D03*
X0022800Y0021740D03*
D14*
X0012540Y0021740D01*
X0012487Y0021738D01*
X0012435Y0021732D01*
X0012383Y0021723D01*
X0012332Y0021710D01*
X0012281Y0021693D01*
X0012233Y0021673D01*
X0012185Y0021649D01*
X0012140Y0021623D01*
X0012097Y0021592D01*
X0012055Y0021559D01*
X0012017Y0021523D01*
X0011981Y0021485D01*
X0011948Y0021443D01*
X0011917Y0021400D01*
X0011891Y0021355D01*
X0011867Y0021307D01*
X0011847Y0021259D01*
X0011830Y0021208D01*
X0011817Y0021157D01*
X0011808Y0021105D01*
X0011802Y0021053D01*
X0011800Y0021000D01*
X0015060Y0014260D02*
X0022800Y0014260D01*
X0028536Y0014260D01*
X0028606Y0014262D01*
X0028675Y0014268D01*
X0028744Y0014278D01*
X0028812Y0014291D01*
X0028879Y0014308D01*
X0028946Y0014330D01*
X0029011Y0014354D01*
X0029074Y0014383D01*
X0029136Y0014415D01*
X0029196Y0014450D01*
X0029254Y0014489D01*
X0029309Y0014531D01*
X0029362Y0014575D01*
X0029413Y0014623D01*
X0029461Y0014674D01*
X0029505Y0014727D01*
X0029547Y0014782D01*
X0029586Y0014840D01*
X0029621Y0014900D01*
X0029653Y0014962D01*
X0029682Y0015025D01*
X0029706Y0015090D01*
X0029728Y0015157D01*
X0029745Y0015224D01*
X0029758Y0015292D01*
X0029768Y0015361D01*
X0029774Y0015430D01*
X0029776Y0015500D01*
X0029776Y0010500D02*
X0035300Y0010500D01*
X0035398Y0010502D01*
X0035496Y0010508D01*
X0035594Y0010517D01*
X0035691Y0010531D01*
X0035788Y0010548D01*
X0035884Y0010569D01*
X0035979Y0010594D01*
X0036073Y0010622D01*
X0036165Y0010655D01*
X0036257Y0010690D01*
X0036347Y0010730D01*
X0036435Y0010772D01*
X0036522Y0010819D01*
X0036606Y0010868D01*
X0036689Y0010921D01*
X0036769Y0010977D01*
X0036848Y0011037D01*
X0036924Y0011099D01*
X0036997Y0011164D01*
X0037068Y0011232D01*
X0037136Y0011303D01*
X0037201Y0011376D01*
X0037263Y0011452D01*
X0037323Y0011531D01*
X0037379Y0011611D01*
X0037432Y0011694D01*
X0037481Y0011778D01*
X0037528Y0011865D01*
X0037570Y0011953D01*
X0037610Y0012043D01*
X0037645Y0012135D01*
X0037678Y0012227D01*
X0037706Y0012321D01*
X0037731Y0012416D01*
X0037752Y0012512D01*
X0037769Y0012609D01*
X0037783Y0012706D01*
X0037792Y0012804D01*
X0037798Y0012902D01*
X0037800Y0013000D01*
X0037800Y0038000D01*
X0037798Y0038107D01*
X0037792Y0038214D01*
X0037783Y0038321D01*
X0037769Y0038427D01*
X0037752Y0038533D01*
X0037731Y0038638D01*
X0037707Y0038742D01*
X0037678Y0038845D01*
X0037646Y0038947D01*
X0037611Y0039048D01*
X0037572Y0039148D01*
X0037529Y0039246D01*
X0037483Y0039343D01*
X0037433Y0039438D01*
X0037380Y0039531D01*
X0037324Y0039622D01*
X0037264Y0039711D01*
X0037202Y0039798D01*
X0037136Y0039882D01*
X0037067Y0039965D01*
X0036996Y0040044D01*
X0036921Y0040121D01*
X0036844Y0040196D01*
X0036765Y0040267D01*
X0036682Y0040336D01*
X0036598Y0040402D01*
X0036511Y0040464D01*
X0036422Y0040524D01*
X0036331Y0040580D01*
X0036238Y0040633D01*
X0036143Y0040683D01*
X0036046Y0040729D01*
X0035948Y0040772D01*
X0035848Y0040811D01*
X0035747Y0040846D01*
X0035645Y0040878D01*
X0035542Y0040907D01*
X0035438Y0040931D01*
X0035333Y0040952D01*
X0035227Y0040969D01*
X0035121Y0040983D01*
X0035014Y0040992D01*
X0034907Y0040998D01*
X0034800Y0041000D01*
X0030540Y0041000D01*
X0030571Y0041002D01*
X0030602Y0041008D01*
X0030632Y0041017D01*
X0030661Y0041030D01*
X0030688Y0041046D01*
X0030712Y0041065D01*
X0030735Y0041088D01*
X0030754Y0041112D01*
X0030770Y0041139D01*
X0030783Y0041168D01*
X0030792Y0041198D01*
X0030798Y0041229D01*
X0030800Y0041260D01*
X0030800Y0045000D01*
X0030798Y0045087D01*
X0030792Y0045174D01*
X0030783Y0045261D01*
X0030770Y0045347D01*
X0030753Y0045433D01*
X0030732Y0045518D01*
X0030707Y0045601D01*
X0030679Y0045684D01*
X0030648Y0045765D01*
X0030613Y0045845D01*
X0030574Y0045923D01*
X0030532Y0046000D01*
X0030487Y0046075D01*
X0030438Y0046147D01*
X0030387Y0046218D01*
X0030332Y0046286D01*
X0030275Y0046351D01*
X0030214Y0046414D01*
X0030151Y0046475D01*
X0030086Y0046532D01*
X0030018Y0046587D01*
X0029947Y0046638D01*
X0029875Y0046687D01*
X0029800Y0046732D01*
X0029723Y0046774D01*
X0029645Y0046813D01*
X0029565Y0046848D01*
X0029484Y0046879D01*
X0029401Y0046907D01*
X0029318Y0046932D01*
X0029233Y0046953D01*
X0029147Y0046970D01*
X0029061Y0046983D01*
X0028974Y0046992D01*
X0028887Y0046998D01*
X0028800Y0047000D01*
X0019800Y0047000D01*
X0019693Y0046998D01*
X0019586Y0046992D01*
X0019479Y0046983D01*
X0019373Y0046969D01*
X0019267Y0046952D01*
X0019162Y0046931D01*
X0019058Y0046907D01*
X0018955Y0046878D01*
X0018853Y0046846D01*
X0018752Y0046811D01*
X0018652Y0046772D01*
X0018554Y0046729D01*
X0018457Y0046683D01*
X0018362Y0046633D01*
X0018269Y0046580D01*
X0018178Y0046524D01*
X0018089Y0046464D01*
X0018002Y0046402D01*
X0017918Y0046336D01*
X0017835Y0046267D01*
X0017756Y0046196D01*
X0017679Y0046121D01*
X0017604Y0046044D01*
X0017533Y0045965D01*
X0017464Y0045882D01*
X0017398Y0045798D01*
X0017336Y0045711D01*
X0017276Y0045622D01*
X0017220Y0045531D01*
X0017167Y0045438D01*
X0017117Y0045343D01*
X0017071Y0045246D01*
X0017028Y0045148D01*
X0016989Y0045048D01*
X0016954Y0044947D01*
X0016922Y0044845D01*
X0016893Y0044742D01*
X0016869Y0044638D01*
X0016848Y0044533D01*
X0016831Y0044427D01*
X0016817Y0044321D01*
X0016808Y0044214D01*
X0016802Y0044107D01*
X0016800Y0044000D01*
X0016798Y0043893D01*
X0016792Y0043786D01*
X0016783Y0043679D01*
X0016769Y0043573D01*
X0016752Y0043467D01*
X0016731Y0043362D01*
X0016707Y0043258D01*
X0016678Y0043155D01*
X0016646Y0043053D01*
X0016611Y0042952D01*
X0016572Y0042852D01*
X0016529Y0042754D01*
X0016483Y0042657D01*
X0016433Y0042562D01*
X0016380Y0042469D01*
X0016324Y0042378D01*
X0016264Y0042289D01*
X0016202Y0042202D01*
X0016136Y0042118D01*
X0016067Y0042035D01*
X0015996Y0041956D01*
X0015921Y0041879D01*
X0015844Y0041804D01*
X0015765Y0041733D01*
X0015682Y0041664D01*
X0015598Y0041598D01*
X0015511Y0041536D01*
X0015422Y0041476D01*
X0015331Y0041420D01*
X0015238Y0041367D01*
X0015143Y0041317D01*
X0015046Y0041271D01*
X0014948Y0041228D01*
X0014848Y0041189D01*
X0014747Y0041154D01*
X0014645Y0041122D01*
X0014542Y0041093D01*
X0014438Y0041069D01*
X0014333Y0041048D01*
X0014227Y0041031D01*
X0014121Y0041017D01*
X0014014Y0041008D01*
X0013907Y0041002D01*
X0013800Y0041000D01*
X0011800Y0041000D01*
X0013800Y0031000D02*
X0013993Y0031002D01*
X0014187Y0031009D01*
X0014379Y0031021D01*
X0014572Y0031037D01*
X0014764Y0031058D01*
X0014956Y0031084D01*
X0015147Y0031114D01*
X0015337Y0031149D01*
X0015526Y0031188D01*
X0015715Y0031232D01*
X0015902Y0031281D01*
X0016088Y0031334D01*
X0016272Y0031392D01*
X0016455Y0031454D01*
X0016637Y0031520D01*
X0016817Y0031591D01*
X0016995Y0031666D01*
X0017171Y0031745D01*
X0017346Y0031829D01*
X0017518Y0031916D01*
X0017688Y0032008D01*
X0017856Y0032104D01*
X0018021Y0032204D01*
X0018184Y0032308D01*
X0018345Y0032416D01*
X0018502Y0032528D01*
X0018657Y0032643D01*
X0018809Y0032763D01*
X0018959Y0032885D01*
X0019105Y0033012D01*
X0019248Y0033142D01*
X0019388Y0033275D01*
X0019525Y0033412D01*
X0019658Y0033552D01*
X0019788Y0033695D01*
X0019915Y0033841D01*
X0020037Y0033991D01*
X0020157Y0034143D01*
X0020272Y0034298D01*
X0020384Y0034455D01*
X0020492Y0034616D01*
X0020596Y0034779D01*
X0020696Y0034944D01*
X0020792Y0035112D01*
X0020884Y0035282D01*
X0020971Y0035454D01*
X0021055Y0035629D01*
X0021134Y0035805D01*
X0021209Y0035983D01*
X0021280Y0036163D01*
X0021346Y0036345D01*
X0021408Y0036528D01*
X0021466Y0036712D01*
X0021519Y0036898D01*
X0021568Y0037085D01*
X0021612Y0037274D01*
X0021651Y0037463D01*
X0021686Y0037653D01*
X0021716Y0037844D01*
X0021742Y0038036D01*
X0021763Y0038228D01*
X0021779Y0038421D01*
X0021791Y0038613D01*
X0021798Y0038807D01*
X0021800Y0039000D01*
X0021800Y0033476D01*
X0021800Y0039000D02*
X0021868Y0039002D01*
X0021936Y0039007D01*
X0022004Y0039017D01*
X0022071Y0039029D01*
X0022137Y0039046D01*
X0022202Y0039066D01*
X0022266Y0039089D01*
X0022329Y0039116D01*
X0022390Y0039147D01*
X0022450Y0039180D01*
X0022507Y0039217D01*
X0022563Y0039257D01*
X0022616Y0039300D01*
X0022667Y0039345D01*
X0022715Y0039393D01*
X0022760Y0039444D01*
X0022803Y0039497D01*
X0022843Y0039553D01*
X0022880Y0039610D01*
X0022913Y0039670D01*
X0022944Y0039731D01*
X0022971Y0039794D01*
X0022994Y0039858D01*
X0023014Y0039923D01*
X0023031Y0039989D01*
X0023043Y0040056D01*
X0023053Y0040124D01*
X0023058Y0040192D01*
X0023060Y0040260D01*
X0023060Y0041000D01*
X0021800Y0033476D02*
X0021802Y0033283D01*
X0021809Y0033091D01*
X0021821Y0032898D01*
X0021837Y0032706D01*
X0021858Y0032515D01*
X0021884Y0032324D01*
X0021914Y0032133D01*
X0021949Y0031944D01*
X0021988Y0031755D01*
X0022032Y0031567D01*
X0022080Y0031381D01*
X0022133Y0031195D01*
X0022190Y0031011D01*
X0022252Y0030829D01*
X0022318Y0030648D01*
X0022389Y0030468D01*
X0022464Y0030291D01*
X0022543Y0030115D01*
X0022626Y0029941D01*
X0022714Y0029769D01*
X0022805Y0029600D01*
X0022901Y0029432D01*
X0023001Y0029268D01*
X0023104Y0029105D01*
X0023212Y0028945D01*
X0023323Y0028788D01*
X0023438Y0028633D01*
X0023557Y0028482D01*
X0023680Y0028333D01*
X0023806Y0028187D01*
X0023935Y0028044D01*
X0024068Y0027905D01*
X0024205Y0027768D01*
X0024344Y0027635D01*
X0024487Y0027506D01*
X0024633Y0027380D01*
X0024782Y0027257D01*
X0024933Y0027138D01*
X0025088Y0027023D01*
X0025245Y0026912D01*
X0025405Y0026804D01*
X0025568Y0026701D01*
X0025732Y0026601D01*
X0025900Y0026505D01*
X0026069Y0026414D01*
X0026241Y0026326D01*
X0026415Y0026243D01*
X0026591Y0026164D01*
X0026768Y0026089D01*
X0026948Y0026018D01*
X0027129Y0025952D01*
X0027311Y0025890D01*
X0027495Y0025833D01*
X0027681Y0025780D01*
X0027867Y0025732D01*
X0028055Y0025688D01*
X0028244Y0025649D01*
X0028433Y0025614D01*
X0028624Y0025584D01*
X0028815Y0025558D01*
X0029006Y0025537D01*
X0029198Y0025521D01*
X0029391Y0025509D01*
X0029583Y0025502D01*
X0029776Y0025500D01*
X0028536Y0021740D02*
X0022800Y0021740D01*
X0028536Y0021740D02*
X0028606Y0021738D01*
X0028675Y0021732D01*
X0028744Y0021722D01*
X0028812Y0021709D01*
X0028879Y0021692D01*
X0028946Y0021670D01*
X0029011Y0021646D01*
X0029074Y0021617D01*
X0029136Y0021585D01*
X0029196Y0021550D01*
X0029254Y0021511D01*
X0029309Y0021469D01*
X0029362Y0021425D01*
X0029413Y0021377D01*
X0029461Y0021326D01*
X0029505Y0021273D01*
X0029547Y0021218D01*
X0029586Y0021160D01*
X0029621Y0021100D01*
X0029653Y0021038D01*
X0029682Y0020975D01*
X0029706Y0020910D01*
X0029728Y0020843D01*
X0029745Y0020776D01*
X0029758Y0020708D01*
X0029768Y0020639D01*
X0029774Y0020570D01*
X0029776Y0020500D01*
X0044800Y0015000D02*
X0044800Y0026000D01*
X0044802Y0026140D01*
X0044808Y0026280D01*
X0044818Y0026420D01*
X0044831Y0026560D01*
X0044849Y0026699D01*
X0044871Y0026838D01*
X0044896Y0026975D01*
X0044925Y0027113D01*
X0044958Y0027249D01*
X0044995Y0027384D01*
X0045036Y0027518D01*
X0045081Y0027651D01*
X0045129Y0027783D01*
X0045181Y0027913D01*
X0045236Y0028042D01*
X0045295Y0028169D01*
X0045358Y0028295D01*
X0045424Y0028419D01*
X0045493Y0028540D01*
X0045566Y0028660D01*
X0045643Y0028778D01*
X0045722Y0028893D01*
X0045805Y0029007D01*
X0045891Y0029117D01*
X0045980Y0029226D01*
X0046072Y0029332D01*
X0046167Y0029435D01*
X0046264Y0029536D01*
X0046365Y0029633D01*
X0046468Y0029728D01*
X0046574Y0029820D01*
X0046683Y0029909D01*
X0046793Y0029995D01*
X0046907Y0030078D01*
X0047022Y0030157D01*
X0047140Y0030234D01*
X0047260Y0030307D01*
X0047381Y0030376D01*
X0047505Y0030442D01*
X0047631Y0030505D01*
X0047758Y0030564D01*
X0047887Y0030619D01*
X0048017Y0030671D01*
X0048149Y0030719D01*
X0048282Y0030764D01*
X0048416Y0030805D01*
X0048551Y0030842D01*
X0048687Y0030875D01*
X0048825Y0030904D01*
X0048962Y0030929D01*
X0049101Y0030951D01*
X0049240Y0030969D01*
X0049380Y0030982D01*
X0049520Y0030992D01*
X0049660Y0030998D01*
X0049800Y0031000D01*
X0061800Y0031000D01*
X0061800Y0021000D02*
X0061798Y0020956D01*
X0061792Y0020913D01*
X0061783Y0020871D01*
X0061770Y0020829D01*
X0061753Y0020789D01*
X0061733Y0020750D01*
X0061710Y0020713D01*
X0061683Y0020679D01*
X0061654Y0020646D01*
X0061621Y0020617D01*
X0061587Y0020590D01*
X0061550Y0020567D01*
X0061511Y0020547D01*
X0061471Y0020530D01*
X0061429Y0020517D01*
X0061387Y0020508D01*
X0061344Y0020502D01*
X0061300Y0020500D01*
X0051824Y0020500D01*
X0051824Y0015500D02*
X0056300Y0015500D01*
X0056398Y0015498D01*
X0056496Y0015492D01*
X0056594Y0015483D01*
X0056691Y0015469D01*
X0056788Y0015452D01*
X0056884Y0015431D01*
X0056979Y0015406D01*
X0057073Y0015378D01*
X0057165Y0015345D01*
X0057257Y0015310D01*
X0057347Y0015270D01*
X0057435Y0015228D01*
X0057522Y0015181D01*
X0057606Y0015132D01*
X0057689Y0015079D01*
X0057769Y0015023D01*
X0057848Y0014963D01*
X0057924Y0014901D01*
X0057997Y0014836D01*
X0058068Y0014768D01*
X0058136Y0014697D01*
X0058201Y0014624D01*
X0058263Y0014548D01*
X0058323Y0014469D01*
X0058379Y0014389D01*
X0058432Y0014306D01*
X0058481Y0014222D01*
X0058528Y0014135D01*
X0058570Y0014047D01*
X0058610Y0013957D01*
X0058645Y0013865D01*
X0058678Y0013773D01*
X0058706Y0013679D01*
X0058731Y0013584D01*
X0058752Y0013488D01*
X0058769Y0013391D01*
X0058783Y0013294D01*
X0058792Y0013196D01*
X0058798Y0013098D01*
X0058800Y0013000D01*
X0058802Y0012907D01*
X0058808Y0012815D01*
X0058818Y0012723D01*
X0058832Y0012631D01*
X0058849Y0012541D01*
X0058871Y0012450D01*
X0058896Y0012361D01*
X0058925Y0012274D01*
X0058958Y0012187D01*
X0058995Y0012102D01*
X0059035Y0012019D01*
X0059079Y0011937D01*
X0059126Y0011857D01*
X0059176Y0011780D01*
X0059230Y0011704D01*
X0059287Y0011631D01*
X0059347Y0011561D01*
X0059410Y0011493D01*
X0059476Y0011428D01*
X0059544Y0011365D01*
X0059615Y0011306D01*
X0059689Y0011250D01*
X0059765Y0011197D01*
X0059843Y0011147D01*
X0059923Y0011101D01*
X0060005Y0011058D01*
X0060089Y0011019D01*
X0060175Y0010983D01*
X0060261Y0010951D01*
X0060350Y0010923D01*
X0060439Y0010898D01*
X0060529Y0010878D01*
X0060620Y0010861D01*
X0060712Y0010848D01*
X0060804Y0010839D01*
X0060897Y0010834D01*
X0060989Y0010833D01*
X0061082Y0010836D01*
X0061174Y0010843D01*
X0061266Y0010854D01*
X0061357Y0010868D01*
X0061448Y0010887D01*
X0061538Y0010910D01*
X0061627Y0010936D01*
X0061714Y0010966D01*
X0061800Y0011000D01*
X0051824Y0010500D02*
X0049300Y0010500D01*
X0049167Y0010502D01*
X0049033Y0010508D01*
X0048900Y0010518D01*
X0048768Y0010532D01*
X0048636Y0010549D01*
X0048504Y0010571D01*
X0048373Y0010596D01*
X0048243Y0010626D01*
X0048114Y0010659D01*
X0047986Y0010696D01*
X0047859Y0010737D01*
X0047733Y0010782D01*
X0047609Y0010830D01*
X0047486Y0010882D01*
X0047365Y0010937D01*
X0047245Y0010997D01*
X0047127Y0011059D01*
X0047012Y0011125D01*
X0046898Y0011195D01*
X0046786Y0011268D01*
X0046677Y0011344D01*
X0046569Y0011423D01*
X0046465Y0011506D01*
X0046362Y0011591D01*
X0046263Y0011680D01*
X0046166Y0011771D01*
X0046071Y0011866D01*
X0045980Y0011963D01*
X0045891Y0012062D01*
X0045806Y0012165D01*
X0045723Y0012269D01*
X0045644Y0012377D01*
X0045568Y0012486D01*
X0045495Y0012598D01*
X0045425Y0012712D01*
X0045359Y0012827D01*
X0045297Y0012945D01*
X0045237Y0013065D01*
X0045182Y0013186D01*
X0045130Y0013309D01*
X0045082Y0013433D01*
X0045037Y0013559D01*
X0044996Y0013686D01*
X0044959Y0013814D01*
X0044926Y0013943D01*
X0044896Y0014073D01*
X0044871Y0014204D01*
X0044849Y0014336D01*
X0044832Y0014468D01*
X0044818Y0014600D01*
X0044808Y0014733D01*
X0044802Y0014867D01*
X0044800Y0015000D01*
X0015060Y0014260D02*
X0014949Y0014258D01*
X0014838Y0014252D01*
X0014727Y0014243D01*
X0014616Y0014230D01*
X0014506Y0014213D01*
X0014397Y0014192D01*
X0014288Y0014167D01*
X0014180Y0014139D01*
X0014074Y0014107D01*
X0013968Y0014072D01*
X0013864Y0014033D01*
X0013761Y0013990D01*
X0013660Y0013944D01*
X0013560Y0013895D01*
X0013462Y0013842D01*
X0013366Y0013785D01*
X0013272Y0013726D01*
X0013180Y0013663D01*
X0013090Y0013598D01*
X0013003Y0013529D01*
X0012918Y0013457D01*
X0012835Y0013383D01*
X0012755Y0013305D01*
X0012677Y0013225D01*
X0012603Y0013142D01*
X0012531Y0013057D01*
X0012462Y0012970D01*
X0012397Y0012880D01*
X0012334Y0012788D01*
X0012275Y0012694D01*
X0012218Y0012598D01*
X0012165Y0012500D01*
X0012116Y0012400D01*
X0012070Y0012299D01*
X0012027Y0012196D01*
X0011988Y0012092D01*
X0011953Y0011986D01*
X0011921Y0011880D01*
X0011893Y0011772D01*
X0011868Y0011663D01*
X0011847Y0011554D01*
X0011830Y0011444D01*
X0011817Y0011333D01*
X0011808Y0011222D01*
X0011802Y0011111D01*
X0011800Y0011000D01*
X0011800Y0031000D02*
X0013800Y0031000D01*
M02*
